<?xml version="1.0" encoding="utf-8"?>

<!DOCTYPE svg PUBLIC "-//W3C//DTD SVG 1.1//EN" "http://www.w3.org/Graphics/SVG/1.1/DTD/svg11.dtd">
<svg version="1.1" id="Layer_1" xmlns="http://www.w3.org/2000/svg" xmlns:xlink="http://www.w3.org/1999/xlink" x="0px" y="0px"
	 viewBox="0 0 2034.051 1672.386" enable-background="new 0 0 2034.051 1672.386" xml:space="preserve">
<path d="M429.6,36.193c8.519,192.294,162.454,340.515,346.629,401.6c69.054-46.542,162.504-49.107,235.693-10.523
	c73.399-38.113,169.414-37.694,236.793,13.088c183.077-56.187,345.851-203.706,356-404.113
	c108.842,125.368,113.889,317.954-52.981,468.193c154.23-25.499,311.188,41.56,434.687,136.432
	c9.423,5.497-2.042,11.622-6.806,15.078c-130.154,83.591-319.88,185.305-474.789,174.807
	c38.008-86.697,13.298-187.476-37.537-263.44c-5.34,2.408-10.68,4.869-15.968,7.382c6.131,25.035,77.89,142.364,5.131,286.214
	c-17.591,37.956-46.646,68.635-68.792,103.816c-170.221,261.532-149.383,219.119-150.148,262.865
	c0.838,55.232-0.838,110.569,0.838,165.802c13.141,7.643,26.7,14.921,38.323,24.92c5.287,12.303,2.199,26.491,2.932,39.579
	c-2.062,42.455,15.982,121.984-62.981,168.629c-20.93,12.579-8.579,9.149-356.838,9.528
	c-55.651,0.419-98.424-52.667-104.392-104.654c-2.094-36.542-0.471-73.19-0.785-109.784c13.664-9.319,27.171-18.847,40.888-28.061
	c0-62.353,0.052-124.757,0.052-187.11c0.827-16.729,3.799-7.211-148.892-241.714c-21.412-34.082-49.526-63.818-67.064-100.361
	c-36.49-70.205-44.081-154.86-19.475-230.196c5.916-20.679,18.062-39.003,22.826-60.049c-4.816-1.623-9.633-3.193-14.449-4.764
	c-67.676,112.645-62.298,187.034-36.752,264.959C377.145,845.18,172.018,735.686,44.02,647.833
	C176.219,545.52,318.215,484.502,482.686,504.595C311.822,349.696,324.048,157.813,429.6,36.193z"/>
</svg>
