<?xml version="1.0" encoding="UTF-8" standalone="no"?>
<!-- Created with Inkscape (http://www.inkscape.org/) -->

<svg
   xmlns:dc="http://purl.org/dc/elements/1.1/"
   xmlns:cc="http://creativecommons.org/ns#"
   xmlns:rdf="http://www.w3.org/1999/02/22-rdf-syntax-ns#"
   xmlns:svg="http://www.w3.org/2000/svg"
   xmlns="http://www.w3.org/2000/svg"
   xmlns:sodipodi="http://sodipodi.sourceforge.net/DTD/sodipodi-0.dtd"
   xmlns:inkscape="http://www.inkscape.org/namespaces/inkscape"
   width="210mm"
   height="297mm"
   viewBox="0 0 210 297"
   version="1.1"
   id="svg8"
   inkscape:version="0.92.1 r15371"
   sodipodi:docname="talk rooster.svg">
  <defs
     id="defs2" />
  <sodipodi:namedview
     id="base"
     pagecolor="#ffffff"
     bordercolor="#666666"
     borderopacity="1.0"
     inkscape:pageopacity="0.0"
     inkscape:pageshadow="2"
     inkscape:zoom="0.59776235"
     inkscape:cx="396.85039"
     inkscape:cy="561.25984"
     inkscape:document-units="mm"
     inkscape:current-layer="layer1"
     showgrid="false"
     inkscape:measure-start="0,0"
     inkscape:measure-end="0,0"
     inkscape:window-width="1600"
     inkscape:window-height="838"
     inkscape:window-x="-8"
     inkscape:window-y="-8"
     inkscape:window-maximized="1"
     showguides="false" />
  <metadata
     id="metadata5">
    <rdf:RDF>
      <cc:Work
         rdf:about="">
        <dc:format>image/svg+xml</dc:format>
        <dc:type
           rdf:resource="http://purl.org/dc/dcmitype/StillImage" />
        <dc:title></dc:title>
      </cc:Work>
    </rdf:RDF>
  </metadata>
  <g
     inkscape:label="Layer 1"
     inkscape:groupmode="layer"
     id="layer1">
    <path
       style="fill:#000000;stroke-width:0.26458332"
       d="m 94.674211,126.20155 c 4.528659,2.59824 -2.545696,-11.64932 -0.371215,-18.53601 1.68376,-5.66892 12.742014,-0.26819 16.123424,0.36903 2.04386,1.58034 5.11058,2.41523 4.17456,6.12225 2.51524,6.96743 -0.94604,16.65474 2.1887,15.90866 3.22211,-3.93576 3.9898,-9.68613 4.02646,-14.22391 0.94244,-4.11697 2.02516,-8.60523 6.03627,-11.62481 1.11562,-2.13832 3.95662,-3.46881 3.3705,-6.088267 3.18382,0.931652 1.02166,-2.451383 0,-3.439583 2.77925,0.911331 -0.23289,-3.378901 0.77724,-4.779044 -0.97071,-2.417054 -0.54388,-4.781519 -2.89391,-5.539706 -2.00396,-6.018661 32.65135,-43.067052 9.46187,-28.909209 5.80416,-11.525892 -0.0837,-18.505289 -0.0837,-18.505289 -5.00799,-7.038407 -4.19851,9.563491 -12.07495,15.310497 1.91678,-6.220068 4.23961,-4.745596 4.81342,-12.345999 -1.57307,-3.752543 -4.36552,-10.680724 -9.61023,-6.908347 0.34883,13.932675 0.95414,6.590005 -3.87115,4.514815 -4.82529,-2.07519 -0.33378,7.990914 -2.10607,11.193291 -1.49905,5.335331 -2.30574,12.309027 -8.62887,13.981858 -4.32791,0.967183 -9.274312,4.272184 -13.481371,1.327745 -4.381981,-2.412435 -4.399148,-0.206989 -5.828781,-1.630549 -5.36175,-5.338974 -3.87745,-7.806223 -6.999165,-19.145214 -1.299243,-3.118696 -3.151124,-9.300674 -3.368202,-10.546184 2.074378,-1.1157 4.458376,-7.268884 1.171929,-6.483286 -2.45024,5.504561 -1.085584,-4.008632 -3.92287,-1.93858 0.156063,2.623085 -1.827592,3.166579 -2.112243,0.374376 -2.381059,-1.886596 -1.466432,5.080781 -3.787647,0.744852 -2.334945,-0.683717 -1.272684,4.680953 -4.659494,2.608973 1.155116,4.209618 -5.020676,7.176262 -3.233184,11.590067 -7.883454,3.1435 0.454163,1.334181 1.032474,2.125682 0.57831,0.791501 -9.30534,1.602637 -0.0915,2.256004 3.098903,1.608101 -3.026078,12.224793 5.311891,5.939748 -2.010011,3.93185 -2.061371,9.552004 -2.776211,14.049692 -1.113176,7.078152 -1.805408,14.418438 -0.121231,21.443336 0.202052,5.146417 5.2684,8.481139 8.435863,12.101583 2.752997,3.626258 7.175809,5.954908 9.963713,9.757548 0.504957,4.82856 4.936631,6.31487 7.873979,9.36332 0.598597,0.37564 1.204223,0.77192 1.650041,1.33135"
       id="path9219"
       inkscape:connector-curvature="0"
       sodipodi:nodetypes="ccccccccccccccccccccsccccccccccccccccc" />
  </g>
</svg>
